# xmcd
#
# Track frame offsets:
# 150
# 16500
# 32675
# 53175
# 70600
# 90675
#
# Disc length: 1432 seconds
#
# Revision: 0
# Processed by: cddbd v1.4PL0 Copyright (c) Steve Scherf et al.
# Submitted via: Audion 2.6.0 (http://www.panic.com/audion/)
#
DISCID=3c059606
DTITLE=TheseChinaBombs - The Pirate Song
DYEAR=1900
DGENRE=
TTITLE0=The Pirate Song (Twelve Inch Power Mix)
TTITLE1=Free
TTITLE2=Cult
TTITLE3=The Pirate Song (Roxy Radio Remix)
TTITLE4=This Is It! (Dangerous Dance Remix)
TTITLE5=The Pirate Song (Deep Dark Remix)
EXTD=
EXTT0=
EXTT1=
EXTT2=
EXTT3=
EXTT4=
EXTT5=
PLAYORDER=
